<svg width="296" height="296" viewBox="0 0 296 296" fill="none" xmlns="http://www.w3.org/2000/svg">
<g filter="url(#filter0_d_22_11)">
<mask id="mask0_22_11" style="mask-type:alpha" maskUnits="userSpaceOnUse" x="0" y="0" width="296" height="296">
<rect x="0.501869" y="1.59998" width="293.151" height="293.151" transform="rotate(-0.214624 0.501869 1.59998)" fill="#D9D9D9" stroke="black"/>
</mask>
<g mask="url(#mask0_22_11)">
<path d="M86.6223 221.892C93.2295 221.867 98.8817 224.193 103.607 228.883C108.332 233.573 110.7 239.207 110.725 245.814C110.75 252.422 108.423 258.075 103.734 262.8C99.0441 267.524 93.4093 269.892 86.8022 269.917C80.195 269.942 74.5419 267.616 69.817 262.927C65.092 258.237 62.7245 252.602 62.6998 245.994C62.6751 239.387 65.0004 233.735 69.6899 229.01C74.3796 224.285 80.0151 221.917 86.6223 221.892ZM209.184 221.433C215.791 221.408 221.444 223.734 226.169 228.424C230.894 233.113 233.262 238.748 233.286 245.355C233.311 251.963 230.986 257.616 226.296 262.341C221.607 267.066 215.971 269.433 209.364 269.458C202.757 269.482 197.104 267.157 192.38 262.468C187.655 257.778 185.286 252.142 185.261 245.535C185.237 238.928 187.563 233.276 192.253 228.551C196.942 223.826 202.577 221.458 209.184 221.433ZM51.8675 25.9201L63.465 50.1043L63.6018 50.389L244.697 49.7106C249.211 49.6937 252.632 51.6746 255.013 55.7062C257.39 59.733 257.505 63.7847 255.359 67.9257L212.144 146.529L212.143 146.53C209.951 150.55 207.011 153.661 203.321 155.873C199.63 158.087 195.585 159.202 191.179 159.218L99.5755 159.562L99.4339 159.821L86.0434 184.384L85.6389 185.127L233.059 184.574L233.147 208.087L86.5727 208.636C77.5619 208.67 70.7642 204.759 66.1241 196.858C61.4812 188.953 61.2569 181.122 65.4294 173.3L81.8627 143.211L81.9849 142.986L81.8747 142.755L37.404 49.7732L37.2672 49.4876L12.9383 49.5788L12.8502 26.0662L51.8675 25.9201ZM75.2013 74.5742L104.846 135.746L104.983 136.029L191.387 135.705L191.529 135.446L225.004 74.0385L225.408 73.2957L74.8549 73.8597L75.2013 74.5742Z" fill="#C5A059" stroke="black"/>
</g>
</g>
<defs>
<filter id="filter0_d_22_11" x="8.34833" y="25.4189" width="253.038" height="252.998" filterUnits="userSpaceOnUse" color-interpolation-filters="sRGB">
<feFlood flood-opacity="0" result="BackgroundImageFix"/>
<feColorMatrix in="SourceAlpha" type="matrix" values="0 0 0 0 0 0 0 0 0 0 0 0 0 0 0 0 0 0 127 0" result="hardAlpha"/>
<feOffset dy="4"/>
<feGaussianBlur stdDeviation="2"/>
<feComposite in2="hardAlpha" operator="out"/>
<feColorMatrix type="matrix" values="0 0 0 0 0 0 0 0 0 0 0 0 0 0 0 0 0 0 0.25 0"/>
<feBlend mode="normal" in2="BackgroundImageFix" result="effect1_dropShadow_22_11"/>
<feBlend mode="normal" in="SourceGraphic" in2="effect1_dropShadow_22_11" result="shape"/>
</filter>
</defs>
</svg>
