<svg width="164" height="164" viewBox="0 0 164 164" fill="none" xmlns="http://www.w3.org/2000/svg">
<mask id="mask0_23_25" style="mask-type:alpha" maskUnits="userSpaceOnUse" x="0" y="0" width="164" height="164">
<rect width="164" height="164" fill="#D9D9D9"/>
</mask>
<g mask="url(#mask0_23_25)">
<path d="M47.8333 143.5C44.075 143.5 40.8576 142.162 38.1812 139.485C35.5049 136.809 34.1667 133.592 34.1667 129.833V41H27.3333V27.3333H61.5V20.5H102.5V27.3333H136.667V41H129.833V129.833C129.833 133.592 128.495 136.809 125.819 139.485C123.142 142.162 119.925 143.5 116.167 143.5H47.8333ZM116.167 41H47.8333V129.833H116.167V41ZM61.5 116.167H75.1667V54.6667H61.5V116.167ZM88.8333 116.167H102.5V54.6667H88.8333V116.167Z" fill="#FDFDF0"/>
</g>
</svg>
