<svg width="211" height="211" viewBox="0 0 211 211" fill="none" xmlns="http://www.w3.org/2000/svg">
<g filter="url(#filter0_d_22_10)">
<mask id="mask0_22_10" style="mask-type:alpha" maskUnits="userSpaceOnUse" x="0" y="0" width="211" height="211">
<rect x="0.5" y="0.5" width="209.014" height="209.014" fill="#D9D9D9" stroke="black"/>
</mask>
<g mask="url(#mask0_22_10)">
<path d="M144.385 23.6893C157.97 23.6893 169.288 28.2363 178.377 37.325C187.466 46.4137 192.013 57.7326 192.013 71.3172C192.013 77.9686 190.893 84.4761 188.651 90.8406C186.412 97.1956 182.467 104.188 176.798 111.819C171.129 119.45 163.49 128.072 153.875 137.687C144.258 147.305 132.087 158.747 117.362 172.014L105.007 183.091L92.6525 172.014C77.9267 158.747 65.7561 147.305 56.1389 137.687C46.5239 128.072 38.8846 119.45 33.216 111.819C27.5471 104.188 23.6022 97.1956 21.3635 90.8406C19.1214 84.4761 18.0012 77.9686 18.0012 71.3172C18.0012 57.7326 22.5482 46.4137 31.6369 37.325C40.7256 28.2363 52.0445 23.6893 65.6291 23.6893C73.1398 23.6893 80.2873 25.2775 87.0754 28.4549C93.8642 31.6327 99.7134 36.1098 104.626 41.8895L105.007 42.3377L105.388 41.8895C110.301 36.1098 116.15 31.6327 122.939 28.4549C129.727 25.2775 136.874 23.6893 144.385 23.6893ZM144.385 40.1902C137.43 40.1902 130.99 42.1533 125.076 46.0711C119.27 49.9181 115.227 54.8131 112.974 60.7547H97.0402C94.7867 54.8131 90.7445 49.9181 84.9377 46.0711C79.024 42.1533 72.584 40.1902 65.6291 40.1902C56.755 40.1903 49.3332 43.1542 43.3996 49.0877C37.4661 55.0213 34.5022 62.4431 34.5022 71.3172C34.5022 76.4899 35.5371 81.6932 37.5998 86.9236C39.6664 92.1639 43.3448 98.1138 48.6115 104.77C53.8788 111.428 61.0399 119.246 70.09 128.223C79.1404 137.201 90.6686 147.963 104.673 160.509L105.007 160.807L105.341 160.509C119.346 147.963 130.874 137.201 139.924 128.223C148.974 119.246 156.135 111.428 161.403 104.77C166.669 98.1138 170.348 92.1639 172.414 86.9236C174.477 81.6932 175.512 76.4899 175.512 71.3172C175.512 62.4431 172.548 55.0213 166.614 49.0877C160.681 43.1542 153.259 40.1903 144.385 40.1902Z" fill="#FDFDF0" stroke="black"/>
</g>
</g>
<defs>
<filter id="filter0_d_22_10" x="13.5012" y="23.1893" width="183.012" height="168.573" filterUnits="userSpaceOnUse" color-interpolation-filters="sRGB">
<feFlood flood-opacity="0" result="BackgroundImageFix"/>
<feColorMatrix in="SourceAlpha" type="matrix" values="0 0 0 0 0 0 0 0 0 0 0 0 0 0 0 0 0 0 127 0" result="hardAlpha"/>
<feOffset dy="4"/>
<feGaussianBlur stdDeviation="2"/>
<feComposite in2="hardAlpha" operator="out"/>
<feColorMatrix type="matrix" values="0 0 0 0 0 0 0 0 0 0 0 0 0 0 0 0 0 0 0.25 0"/>
<feBlend mode="normal" in2="BackgroundImageFix" result="effect1_dropShadow_22_10"/>
<feBlend mode="normal" in="SourceGraphic" in2="effect1_dropShadow_22_10" result="shape"/>
</filter>
</defs>
</svg>
