<svg width="496" height="500" viewBox="0 0 496 500" fill="none" xmlns="http://www.w3.org/2000/svg">
<path d="M0 499.753C6.9 479.053 13.4 459.653 19.9 440.253C26.4 421.053 32.2 401.553 39.6 382.653C43.4 373.053 42.2 365.853 37.4 356.853C11.2 308.253 3.4 256.153 12.5 201.953C20.2 156.053 39.7 115.453 71.2 80.9528C123.1 24.2528 187.9 -2.94724 264.5 0.252763C320.6 2.55276 370.2 23.0528 412.5 60.1528C451.9 94.6528 477.6 137.553 489.5 188.553C499.1 229.653 498 270.553 486.2 311.053C471.2 362.353 442.5 404.653 399.8 436.853C340.5 481.653 274 495.553 201.5 481.453C179.7 477.253 158.9 469.453 139.3 458.853C136.1 457.153 133.4 456.753 129.9 457.953C92.7 469.953 55.4 481.853 18.2 493.753C12.6 495.553 6.9 497.453 0 499.753ZM63.3 437.053C65.3 436.553 66.2 436.353 67.1 436.053C90.4 428.653 113.7 421.153 137.1 413.953C139.3 413.253 142.3 413.853 144.4 414.853C154.5 419.853 164.2 425.853 174.6 430.253C217.4 448.353 261.5 451.253 306.1 438.853C359.3 423.953 400.1 392.253 428 344.353C451.9 303.353 460.1 259.053 452.7 212.453C443.3 153.153 412.9 106.553 362.6 73.4528C319 44.8528 271 35.1528 219.8 43.2528C175.7 50.2528 138 70.3528 106.9 102.553C80.2 130.153 62.3 162.753 54.5 200.253C43.4 253.953 51.6 304.753 81.4 351.053C87.4 360.353 87.2 367.453 83.6 376.953C76.3 396.453 70.2 416.353 63.3 437.053Z" fill="#EDD865"/>
<path d="M378.5 313.653C378.2 332.953 369.1 347.653 350.7 356.853C332.6 365.853 314.2 368.153 295.3 360.753C278.3 354.053 261.1 347.553 244.7 339.453C223.1 328.753 205.4 312.753 189.2 295.053C171.3 275.453 156.1 253.653 143.6 230.353C134.7 213.853 129.3 196.353 131.2 177.153C133.2 156.753 142.7 140.453 158.7 128.153C161.9 125.753 166.7 124.653 170.8 124.253C176.1 123.853 181.4 124.653 186.7 125.053C191.1 125.453 193.5 128.553 195 132.153C198.9 141.753 202.4 151.353 206.1 161.053C208.6 167.553 210.5 174.353 213.5 180.653C217.2 188.453 214.9 194.953 210.1 200.953C206 206.053 201.7 210.953 197 215.353C193.1 219.053 192.4 222.853 195 227.353C206.5 247.853 220.5 266.253 239 281.153C251.2 290.953 264.7 298.253 278.7 305.053C282.8 307.053 286.8 306.753 290 303.053C296.9 295.153 303.9 287.353 310.7 279.353C315.1 274.253 317.3 273.253 323.2 276.253C340.3 284.853 357.2 293.753 374.2 302.653C378.2 304.853 379.2 308.453 378.5 313.653Z" fill="#EDD865"/>
</svg>
